PathFileType  4	(X/Y/Z) C:\Users\antoi\Documents\MyRepositories\mobilecap\ResultsAnalysis
DataRate	CameraRate	NumFrames	NumMarkers	Units	OrigDataRate	OrigDataStartFrame	OrigNumFrames
100.0	100.0	6	51	mm	100.0	53	141
Frame#	Time	r_knee			r_shank_antsup			r_ankle			r_calc			r_5meta			r_toe			L_knee			L_shank_antsup			L_ankle			L_calc			L_5meta			L_toe			r_sh2			r_sh3			r_sh4			L_sh2			L_sh3			r_thigh1			r_thigh2			r_thigh3			r_thigh4			r_thigh5			L_thigh1			L_thigh2			L_thigh3			L_thigh4			r.ASIS			r.PSIS			L.ASIS			L.PSIS			C7			R_Shoulder			L_Shoulder			R_Sternum			L_Sternum			R_humerus			R_elbow_med			R_elbow_lat			R_forearm			R_wrist_radius			R_wrist_ulna			L_humerus			L_elbow_med			L_elbow_lat			L_forearm			L_wrist_radius			L_wrist_ulna			R_HJC			L_HJC			R_HJC_reg			L_HJC_reg			
		X1	Y1	Z1	X2	Y2	Z2	X3	Y3	Z3	X4	Y4	Z4	X5	Y5	Z5	X6	Y6	Z6	X7	Y7	Z7	X8	Y8	Z8	X9	Y9	Z9	X10	Y10	Z10	X11	Y11	Z11	X12	Y12	Z12	X13	Y13	Z13	X14	Y14	Z14	X15	Y15	Z15	X16	Y16	Z16	X17	Y17	Z17	X18	Y18	Z18	X19	Y19	Z19	X20	Y20	Z20	X21	Y21	Z21	X22	Y22	Z22	X23	Y23	Z23	X24	Y24	Z24	X25	Y25	Z25	X26	Y26	Z26	X27	Y27	Z27	X28	Y28	Z28	X29	Y29	Z29	X30	Y30	Z30	X31	Y31	Z31	X32	Y32	Z32	X33	Y33	Z33	X34	Y34	Z34	X35	Y35	Z35	X36	Y36	Z36	X37	Y37	Z37	X38	Y38	Z38	X39	Y39	Z39	X40	Y40	Z40	X41	Y41	Z41	X42	Y42	Z42	X43	Y43	Z43	X44	Y44	Z44	X45	Y45	Z45	X46	Y46	Z46	X47	Y47	Z47	X48	Y48	Z48	X49	Y49	Z49	X50	Y50	Z50	X51	Y51	Z51	

53	0.52000000	271.79656	530.81998	-55.28676	272.84170	445.65111	-51.25334	130.15108	107.34145	-102.05814	62.71002	64.27225	-146.00173	269.80412	35.12632	-79.32455	301.05041	60.21145	-140.87027	573.64636	536.91857	-316.26286	643.73624	443.67391	-328.30228	735.71823	120.26317	-295.24051	686.89793	57.62696	-249.66366	915.96443	135.86057	-265.25014	906.48509	95.81993	-325.89417	240.71678	337.02558	-50.99561	199.48320	467.41269	-33.33839	159.67206	359.25818	-44.94835	557.09662	416.16159	-334.50017	605.90527	305.36039	-331.76712	408.93333	830.39253	4.53061	397.56973	725.61307	-14.62806	339.62524	699.92937	-1.75367	292.63207	838.54036	-2.62519	287.46849	722.75402	-15.84364	526.50675	858.58281	-334.01221	582.18142	730.54813	-333.67460	421.13376	808.42453	-351.42337	485.46724	683.25009	-347.87652	464.93622	1030.58876	-31.90127	281.99223	1076.33042	-136.83587	497.95211	1025.74418	-290.91325	293.19164	1067.34727	-240.53837	282.56602	1576.68355	-184.81972	350.78990	1531.47880	-12.07106	351.09138	1539.18570	-349.46853	434.62342	1506.48357	-153.80266	435.88897	1503.96613	-208.53807	413.68616	1282.12382	96.20456	388.33952	1170.75586	48.51742	422.84827	1194.40536	121.02813	553.05605	1099.44951	110.84339	638.17921	1024.97059	83.83358	607.84066	1007.54462	114.29538	284.32150	1285.47855	-431.80117	210.44286	1216.14599	-367.95359	239.23185	1208.47326	-433.86524	252.70727	1035.51440	-438.27720	261.62413	935.89910	-419.30529	223.95358	938.13549	-437.25791	378.75006	954.74321	-49.41237	410.51421	948.53294	-277.49461	391.72175	965.67980	-71.31128	410.15968	950.88938	-242.04341	
54	0.53000000	281.83046	530.02207	-55.70669	281.29469	444.63108	-51.45494	131.58345	109.39382	-102.29800	63.42432	66.79773	-146.32983	269.86188	35.08275	-79.36582	301.06087	59.90698	-141.09636	584.11490	534.13316	-315.59393	656.01629	442.37020	-326.70283	753.74020	120.66531	-292.95364	707.58105	55.14411	-248.48318	932.46209	143.40848	-262.51455	925.46410	104.42476	-323.53671	246.94552	336.60400	-51.19518	208.15475	467.93681	-33.77228	166.30472	360.60481	-45.40287	570.08372	413.22493	-334.13404	621.13647	303.59293	-331.20455	420.88942	828.79021	3.89729	409.05207	724.06956	-14.92868	350.94392	698.67056	-2.30724	304.64621	837.61913	-3.76566	298.94788	721.77601	-16.83915	539.27376	855.64822	-333.61749	593.46686	727.01022	-333.20489	433.51972	806.85872	-351.71129	496.44025	680.86809	-347.98533	478.27531	1028.60641	-32.35769	295.58179	1074.42334	-138.12527	511.96317	1023.79140	-291.32502	306.94083	1065.62081	-241.82780	295.70866	1574.87397	-185.70537	363.76318	1529.47031	-12.93983	364.74706	1537.13501	-350.48154	447.63722	1504.71609	-154.47146	449.16745	1502.18745	-209.22958	426.91414	1280.54550	95.55626	401.97621	1168.84080	48.17127	436.31808	1192.77452	120.54622	567.47421	1098.95511	110.06559	653.25515	1025.43836	82.80627	623.07047	1007.58989	113.24841	297.12630	1283.47936	-432.37473	222.77692	1214.65946	-368.44334	251.70582	1206.70523	-434.30425	263.76297	1033.66824	-438.37127	271.72050	933.94592	-419.12449	234.16504	936.43500	-437.31144	391.94122	952.82812	-50.31228	424.47203	946.64612	-278.29000	405.23597	963.53648	-71.98263	423.93926	949.04223	-242.73499	
55	0.54000000	292.29246	529.33263	-56.06467	290.12461	443.71098	-51.50288	133.22007	111.73298	-102.40630	64.35821	69.95226	-146.55277	269.91966	35.03675	-79.39929	301.04550	59.63334	-141.31843	595.48221	531.93673	-314.81064	668.35549	440.86120	-325.10764	768.58335	120.22689	-290.68582	724.53943	52.17099	-247.45731	945.72427	148.44374	-259.53473	940.91385	110.80928	-320.94655	253.42314	336.32846	-51.28354	217.29869	468.56400	-34.11794	173.24811	362.18873	-45.72020	582.88177	410.94464	-333.79245	635.04053	302.02079	-330.62263	433.16867	827.32958	3.18931	421.28862	722.45752	-15.63791	362.62946	697.53953	-2.80779	316.99206	836.77111	-4.90065	310.85206	720.85667	-17.84486	552.48391	853.34452	-333.54017	605.56989	724.28509	-332.78958	446.47530	805.59777	-352.07209	508.27580	678.97407	-347.96197	491.85105	1026.79189	-32.96818	309.29420	1072.63044	-139.35029	525.97826	1022.15926	-291.97291	320.74656	1064.09627	-243.05085	308.92190	1573.18864	-186.67764	376.81424	1527.64916	-13.83175	378.41693	1535.15839	-351.58932	460.76896	1503.12295	-155.24062	462.51371	1500.57962	-210.00121	439.94617	1279.06012	94.86605	415.37333	1167.04618	47.72096	449.53137	1191.22416	119.97971	581.52569	1098.36170	109.30507	667.88466	1025.71051	81.86416	637.81161	1007.44726	112.27099	310.38343	1281.41455	-433.01277	235.59308	1213.01224	-369.06364	264.74749	1204.80490	-434.84171	275.50168	1031.72187	-438.59738	282.44026	931.89469	-419.05496	245.09308	934.62946	-437.58785	405.41676	951.03672	-51.32981	438.47937	945.03530	-279.23697	418.98008	961.48704	-72.81820	437.84595	947.42926	-243.64628	
56	0.55000000	303.24750	528.73978	-56.31676	299.36763	442.88762	-51.37413	135.09199	114.39187	-102.37273	65.52216	73.78059	-146.64674	269.97482	34.99398	-79.42093	301.01423	59.34028	-141.53709	607.67623	530.23522	-313.97940	680.72249	439.03401	-323.60071	780.39969	118.85461	-288.46186	737.69703	48.87106	-246.47210	956.38284	150.50031	-256.36394	953.06311	114.21415	-318.13773	260.18956	336.22231	-51.23283	226.93143	469.31617	-34.31896	180.53636	364.02794	-45.86008	595.42926	409.16743	-333.42503	647.60681	300.42878	-329.94899	445.80443	826.02410	2.42555	434.26642	720.80664	-16.67791	374.71327	696.55458	-3.23306	329.70677	835.99221	-5.96995	323.22147	719.98690	-18.81573	566.24492	851.67085	-333.78543	618.53023	722.35643	-332.40112	460.05714	804.68144	-352.50507	521.02347	677.59125	-347.86150	505.65296	1025.16854	-33.75810	323.13307	1070.99406	-140.47280	540.03049	1020.93586	-292.88053	334.63791	1062.79500	-244.16093	322.19881	1571.64978	-187.73948	389.93972	1526.06717	-14.75604	392.07648	1533.30341	-352.77397	474.01823	1501.73377	-156.10954	475.89512	1499.16693	-210.86133	452.77023	1277.71123	94.12706	428.52172	1165.43602	47.13979	462.48149	1189.79418	119.32335	595.18033	1097.70027	108.56322	682.04095	1025.80377	81.02189	652.02929	1007.14796	111.37532	324.09673	1279.32906	-433.69798	248.90936	1211.24523	-369.80046	278.36699	1202.81715	-435.46993	287.95243	1029.72023	-438.95946	293.82354	929.77844	-419.13320	256.81426	932.77643	-438.09508	419.20961	949.38476	-52.47611	452.55889	943.77073	-280.34998	432.93620	959.61549	-73.85205	451.90495	946.09946	-244.80605	
57	0.56000000	314.78232	528.22078	-56.41783	309.06920	442.15458	-51.05156	137.23410	117.42460	-102.18302	66.94260	78.32508	-146.59484	270.02684	34.95713	-79.43537	300.97626	58.99291	-141.75032	620.49732	528.87813	-313.16122	693.04280	436.85322	-322.19296	789.54333	116.64105	-286.29562	747.24206	45.55742	-245.45346	965.16134	149.55797	-253.05357	962.34052	114.37036	-315.18415	267.30688	336.30958	-51.01583	237.08263	470.22071	-34.33348	188.21773	366.14692	-45.80540	607.67071	407.73196	-333.01396	658.94507	298.68816	-329.14815	458.83262	824.88703	1.62436	447.92595	719.17780	-17.93167	387.24830	695.72451	-3.57612	342.82409	835.27494	-6.93567	336.09046	719.16419	-19.70693	580.60139	850.54568	-334.32320	632.28152	721.11006	-332.02667	474.26200	804.11752	-353.01189	534.60842	676.68873	-347.74087	519.67061	1023.75325	-34.73150	337.12255	1069.54124	-141.48656	554.18152	1020.16539	-294.03715	348.66411	1061.70356	-245.14527	335.52754	1570.27266	-188.89518	403.13463	1524.75790	-15.73356	405.70642	1531.61206	-354.01852	487.37238	1500.56637	-157.07506	489.29005	1497.96233	-211.81785	465.39308	1276.52890	93.32810	441.40432	1164.06534	46.41438	475.16278	1188.51357	118.57517	608.41041	1096.99859	107.84490	695.69708	1025.73118	80.29433	665.69318	1006.71986	110.56915	338.25902	1277.26552	-434.41770	262.74026	1209.39627	-370.63325	292.55703	1200.78895	-436.17936	301.13927	1027.71048	-439.46170	305.92758	927.63908	-419.39197	269.41395	930.92654	-438.83040	433.34479	947.88404	-53.75017	466.76691	942.87987	-281.62420	447.09535	958.00683	-75.08199	466.14843	945.07146	-246.19928	
58	0.57000000	326.99747	527.75517	-56.32719	319.28784	441.51211	-50.51652	139.69838	120.89836	-101.81721	68.67938	83.63569	-146.38699	270.07847	34.92267	-79.45566	300.94663	58.57842	-141.95198	633.65080	527.70039	-312.40891	705.22091	434.38608	-320.82992	796.56925	113.83119	-284.21277	753.66494	42.62390	-244.38849	972.67075	145.96279	-249.66336	969.33902	111.52518	-312.20926	274.85560	336.61936	-50.60560	247.80500	471.31235	-34.14544	196.35892	368.58212	-45.56451	619.57534	406.49788	-332.58834	669.28972	296.77125	-328.24053	472.29282	823.93505	0.80005	462.16348	717.66662	-19.24771	400.31017	695.04972	-3.84609	356.37395	834.61585	-7.78894	349.48773	718.39856	-20.47656	595.51417	849.82773	-335.09403	646.65060	720.35252	-331.67496	489.01359	803.88340	-353.59071	548.81864	676.18601	-347.62496	533.89496	1022.56296	-35.86496	351.30034	1068.28624	-142.42047	568.50266	1019.83709	-295.39283	362.87923	1060.78839	-246.03153	348.89142	1569.07037	-190.15138	416.38967	1523.73631	-16.79245	419.29901	1530.11780	-355.31277	500.81152	1499.63052	-158.13484	502.69498	1496.97461	-212.87601	477.83170	1275.52999	92.45785	453.99285	1162.97534	45.55023	487.56551	1187.40214	117.73677	621.19202	1096.27839	107.15900	708.82708	1025.50004	79.69386	678.78035	1006.18346	109.85748	352.85383	1275.26319	-435.16897	277.08668	1207.50079	-371.54367	307.29276	1198.76611	-436.96229	315.07758	1025.73790	-440.10710	318.82371	925.52683	-419.85098	282.95449	929.11813	-439.78612	447.82663	946.55172	-55.13376	481.17580	942.34398	-283.03102	461.45996	956.72923	-76.46389	480.60401	944.33598	-247.76363	
